#!OML:ASF E:\emotionWalksFemale\Project 1\Capture day 1\Session 1\Female1.ASF
:FULLY-SPECIFIED
:DEGREES
95
root 8.55973 15.0969 22.5777 184.338 -1.0003 -178.544
lowerback 13.0782 1.25924 2.52575
upperback -3.11317 2.12285 0.0685895
thorax -10.6562 0.849905 -1.81889
lowerneck -7.11641 -2.87467 -6.71951
upperneck 2.872 -3.59148 6.82418
head 2.48702 -1.69552 3.30094
rclavicle 9.64416e-015 -9.93923e-017
rhumerus -44.2472 11.0687 -92.1519
rradius 33.5755
rwrist 26.1012
rhand -17.7933 -57.053
rfingers 7.12502
rthumb 8.46982 -86.8631
lclavicle 9.64416e-015 -9.93923e-017
lhumerus -41.3174 2.12507 83.5758
lradius 30.3343
lwrist -12.9359
lhand -10.9484 -42.1817
lfingers 7.12502
lthumb 15.0702 -12.7503
rfemur -16.1849 6.61689 25.0491
rtibia 35.8971
rfoot -22.9412 -20.7116
rtoes -4.77082
lfemur -20.3916 -6.37151 -21.217
ltibia 40.3538
lfoot -28.9439 5.82899
ltoes -27.9821
96
root 8.5723 15.0769 22.6123 185.033 -1.69683 -178.65
lowerback 13.0033 1.03777 2.36387
upperback -3.35859 1.80082 0.0874919
thorax -10.9064 0.700169 -1.63883
lowerneck -7.04905 -2.85899 -6.72334
upperneck 2.67131 -3.56632 6.80934
head 2.40458 -1.68516 3.29648
rclavicle -2.32951e-015 9.0447e-015
rhumerus -44.2235 11.1212 -92.1519
rradius 33.5733
rwrist 25.9485
rhand -17.0601 -57.4414
rfingers 7.12502
rthumb 9.17734 -87.2217
lclavicle -2.32951e-015 9.0447e-015
lhumerus -41.2858 2.278 83.4668
lradius 30.4158
lwrist -12.8068
lhand -10.7474 -42.0914
lfingers 7.12502
lthumb 15.2638 -12.6745
rfemur -17.365 6.12578 24.9542
rtibia 36.5289
rfoot -23.1781 -20.814
rtoes -4.11422
lfemur -21.6759 -6.56748 -21.1449
ltibia 40.8078
lfoot -28.9078 5.4889
ltoes -28.5617
97
root 8.57166 15.0567 22.6112 184.784 -1.68952 -178.725
lowerback 13.4137 1.0172 2.2552
upperback -3.23178 1.76696 0.100598
thorax -11.0122 0.691349 -1.56515
lowerneck -7.04092 -2.85884 -6.63638
upperneck 2.48214 -3.56315 6.71016
head 2.3335 -1.68589 3.24387
rclavicle 3.03768e-015 4.42296e-015
rhumerus -43.9697 11.2408 -92.1271
rradius 33.2769
rwrist 25.8477
rhand -16.9243 -57.5335
rfingers 7.12502
rthumb 9.30835 -87.308
lclavicle 3.03768e-015 4.42296e-015
lhumerus -41.2524 2.5057 83.3714
lradius 30.5345
lwrist -12.7068
lhand -10.4546 -41.9246
lfingers 7.12502
lthumb 15.5458 -12.5294
rfemur -17.3599 6.03355 24.9138
rtibia 37.1124
rfoot -23.6579 -20.715
rtoes -3.34195
lfemur -21.6045 -6.38526 -21.2692
ltibia 41.2572
lfoot -29.2619 5.28105
ltoes -28.0904
98
root 8.5633 15.0433 22.5892 184.754 -1.32935 -178.682
lowerback 13.3445 1.13401 2.31824
upperback -3.15138 1.931 0.0972178
thorax -10.8724 0.768413 -1.63772
lowerneck -7.13357 -2.89038 -6.58077
upperneck 2.49593 -3.60346 6.65991
head 2.35508 -1.70525 3.21337
rclavicle -2.01766e-014 0
rhumerus -43.8873 11.1205 -92.0589
rradius 33.0528
rwrist 26.0844
rhand -17.7454 -56.9712
rfingers 7.12502
rthumb 8.51609 -86.7795
lclavicle -2.01766e-014 0
lhumerus -41.216 2.89799 83.1979
lradius 30.4525
lwrist -13.0747
lhand -10.4516 -42.1187
lfingers 7.12502
lthumb 15.5488 -12.7237
rfemur -17.5541 6.17406 24.9105
rtibia 37.6676
rfoot -24.0164 -20.519
rtoes -3.2295
lfemur -21.6526 -6.02957 -21.3041
ltibia 41.7118
lfoot -29.6064 5.2806
ltoes -27.8574
99
root 8.56101 15.0271 22.5845 184.817 -1.26598 -178.59
lowerback 13.4379 1.1651 2.41672
upperback -3.16145 1.99505 0.123171
thorax -10.934 0.791812 -1.68232
lowerneck -7.14065 -2.88245 -6.71918
upperneck 2.48063 -3.58967 6.83211
head 2.35998 -1.69622 3.30072
rclavicle -4.03781e-015 -3.37934e-015
rhumerus -43.9744 10.9248 -91.9952
rradius 32.9997
rwrist 26.3192
rhand -18.4043 -56.3969
rfingers 7.12502
rthumb 7.88011 -86.2301
lclavicle -4.03781e-015 -3.37934e-015
lhumerus -41.1854 3.11461 83.0844
lradius 30.321
lwrist -13.2151
lhand -10.5525 -42.3427
lfingers 7.12502
lthumb 15.4515 -12.9403
rfemur -17.8637 6.18362 24.9951
rtibia 38.1516
rfoot -24.2101 -20.4055
rtoes -3.48557
lfemur -21.9217 -5.80308 -21.2212
ltibia 42.1303
lfoot -29.8274 5.30558
ltoes -28.538
100
root 8.55943 15.0096 22.5823 184.943 -1.2506 -178.56
lowerback 13.4838 1.18642 2.44499
upperback -3.1901 2.03314 0.153297
thorax -10.9918 0.807577 -1.67593
lowerneck -7.05151 -2.87757 -6.90903
upperneck 2.33282 -3.57573 7.00387
head 2.30397 -1.68956 3.39766
rclavicle -3.16813e-016 -1.98785e-015
rhumerus -44.1029 10.877 -91.9747
rradius 33.0031
rwrist 26.2489
rhand -18.3126 -56.4719
rfingers 7.12502
rthumb 7.9686 -86.3017
lclavicle -3.16813e-016 -1.98785e-015
lhumerus -41.3043 3.08431 83.1425
lradius 30.3794
lwrist -12.9444
lhand -10.8882 -42.4092
lfingers 7.12502
lthumb 15.1282 -12.9821
rfemur -18.2602 6.10453 25.013
rtibia 38.6689
rfoot -24.4524 -20.3027
rtoes -3.72827
lfemur -22.2978 -5.64157 -21.1961
ltibia 42.582
lfoot -30.028 5.34727
ltoes -29.1576
101
root 8.55839 14.9896 22.582 185.121 -1.29035 -178.608
lowerback 13.4692 1.20811 2.37605
upperback -3.2038 2.05075 0.162105
thorax -11.0003 0.820626 -1.6312
lowerneck -6.97533 -2.9059 -6.8938
upperneck 2.14733 -3.61185 6.97327
head 2.22906 -1.71012 3.38126
rclavicle -1.24737e-014 -1.88845e-015
rhumerus -44.1637 10.7479 -91.8928
rradius 33.0278
rwrist 26.4812
rhand -18.483 -56.6284
rfingers 7.12502
rthumb 7.80419 -86.4643
lclavicle -1.24737e-014 -1.88845e-015
lhumerus -41.3612 3.04719 83.2115
lradius 30.4037
lwrist -12.8862
lhand -11.2465 -42.649
lfingers 7.12502
lthumb 14.783 -13.1962
rfemur -18.7348 5.89877 24.9487
rtibia 39.2052
rfoot -24.6378 -20.2677
rtoes -3.8846
lfemur -22.7394 -5.51986 -21.2394
ltibia 43.0469
lfoot -30.235 5.18818
ltoes -29.0525
102
root 8.55919 14.966 22.59 185.406 -1.55189 -178.669
lowerback 13.3253 1.15459 2.29602
upperback -3.19253 1.96191 0.175986
thorax -10.9093 0.786179 -1.5466
lowerneck -6.92516 -2.94201 -6.77974
upperneck 1.9195 -3.66113 6.86473
head 2.14054 -1.73803 3.31766
rclavicle -3.72721e-017 2.88238e-015
rhumerus -44.011 10.4289 -91.6281
rradius 33.0181
rwrist 27.3114
rhand -18.8886 -56.5522
rfingers 7.12502
rthumb 7.41267 -86.4023
lclavicle -3.72721e-017 2.88238e-015
lhumerus -41.2828 3.129 83.2374
lradius 30.3366
lwrist -12.923
lhand -11.4016 -42.7436
lfingers 7.12502
lthumb 14.6336 -13.2799
rfemur -19.3721 5.58029 24.8795
rtibia 39.7636
rfoot -24.8731 -20.2311
rtoes -3.613
lfemur -23.3723 -5.5454 -21.2526
ltibia 43.5198
lfoot -30.3539 4.85766
ltoes -28.6151
103
root 8.5494 14.9473 22.5682 185.177 -1.25197 -178.595
lowerback 13.238 1.25359 2.42895
upperback -2.9477 2.10965 0.165578
thorax -10.5735 0.856155 -1.65841
lowerneck -6.92074 -2.9645 -6.64086
upperneck 1.72112 -3.69536 6.78204
head 2.0694 -1.7574 3.25932
rclavicle 2.50034e-014 4.87022e-015
rhumerus -43.8213 10.2886 -91.5339
rradius 32.8686
rwrist 27.5338
rhand -18.8238 -56.7372
rfingers 7.12502
rthumb 7.47524 -86.5851
lclavicle 2.50034e-014 4.87022e-015
lhumerus -41.2573 3.15824 83.2746
lradius 30.3875
lwrist -12.6899
lhand -11.4715 -42.6537
lfingers 7.12502
lthumb 14.5663 -13.1851
rfemur -19.3545 5.69583 24.9302
rtibia 40.356
rfoot -25.3259 -20.0813
rtoes -3.57877
lfemur -23.2203 -5.2323 -21.2702
ltibia 43.9979
lfoot -30.7316 4.83149
ltoes -28.2996
104
root 8.54407 14.9299 22.5553 185.01 -1.03166 -178.521
lowerback 13.4697 1.32032 2.54126
upperback -2.84984 2.22178 0.149526
thorax -10.5912 0.90202 -1.76939
lowerneck -7.00445 -2.96447 -6.56392
upperneck 1.65751 -3.69779 6.78124
head 2.0615 -1.75797 3.2433
rclavicle -1.18091e-014 -3.67752e-015
rhumerus -43.772 10.3336 -91.6347
rradius 32.6097
rwrist 27.3045
rhand -17.8619 -56.9779
rfingers 7.12502
rthumb 8.40366 -86.7908
lclavicle -1.18091e-014 -3.67752e-015
lhumerus -41.2779 3.07542 83.3409
lradius 30.4817
lwrist -12.374
lhand -11.437 -42.489
lfingers 7.12502
lthumb 14.5995 -13.0229
rfemur -19.393 5.8514 25.0044
rtibia 40.8951
rfoot -25.6455 -20.1025
rtoes -3.66754
lfemur -23.1719 -4.93034 -21.2556
ltibia 44.4313
lfoot -31.0375 4.84293
ltoes -28.4581
105
root 8.55253 14.9066 22.582 185.487 -1.48983 -178.587
lowerback 13.881 1.15832 2.46233
upperback -3.19119 2.01063 0.149161
thorax -11.2284 0.790559 -1.69734
lowerneck -7.01519 -2.93881 -6.64151
upperneck 1.71068 -3.66045 6.84549
head 2.08276 -1.7381 3.28261
rclavicle 1.43498e-015 5.76476e-015
rhumerus -43.8702 10.0822 -91.5013
rradius 32.4375
rwrist 28.1574
rhand -16.8846 -56.8233
rfingers 7.12502
rthumb 9.34671 -86.5961
lclavicle 1.43498e-015 5.76476e-015
lhumerus -41.4412 3.1609 83.2802
lradius 30.4547
lwrist -12.4643
lhand -11.3216 -42.1212
lfingers 7.12502
lthumb 14.7106 -12.6631
rfemur -20.2864 5.51438 24.966
rtibia 41.4895
rfoot -25.8459 -20.1713
rtoes -3.05922
lfemur -24.1281 -5.08474 -21.1958
ltibia 44.9068
lfoot -31.0385 4.30687
ltoes -27.4995
106
root 8.53867 14.8917 22.5466 185.295 -0.747532 -178.556
lowerback 13.4064 1.40751 2.46258
upperback -2.8229 2.32488 0.177898
thorax -10.5233 0.958785 -1.71419
lowerneck -6.98317 -2.89964 -6.76093
upperneck 1.40108 -3.59447 6.901
head 1.97417 -1.70792 3.32658
rclavicle 3.79803e-014 1.22253e-014
rhumerus -43.5424 9.75278 -91.1006
rradius 32.3824
rwrist 29.0907
rhand -16.8434 -56.8161
rfingers 7.12502
rthumb 9.38645 -86.5871
lclavicle 3.79803e-014 1.22253e-014
lhumerus -41.1706 3.46455 83.271
lradius 30.3767
lwrist -12.8806
lhand -11.0977 -41.8827
lfingers 7.12502
lthumb 14.9264 -12.4405
rfemur -20.2455 5.81578 24.9223
rtibia 42.0357
rfoot -26.1819 -19.7886
rtoes -2.83401
lfemur -23.8555 -4.52559 -21.3047
ltibia 45.3471
lfoot -31.5655 4.2156
ltoes -26.2324
107
root 8.54413 14.8691 22.5531 185.528 -0.959123 -178.56
lowerback 13.4948 1.35898 2.40988
upperback -2.87588 2.25531 0.184302
thorax -10.6396 0.926362 -1.66637
lowerneck -6.97953 -2.85922 -6.77097
upperneck 1.25705 -3.54348 7.0136
head 1.92563 -1.68245 3.36943
rclavicle 2.94698e-014 -1.88845e-015
rhumerus -43.6679 9.64115 -91.1748
rradius 32.3991
rwrist 28.6214
rhand -17.2285 -57.1907
rfingers 7.12502
rthumb 9.01482 -86.9781
lclavicle 2.94698e-014 -1.88845e-015
lhumerus -41.2826 3.38501 83.2812
lradius 30.5384
lwrist -12.8997
lhand -10.9816 -41.9134
lfingers 7.12502
lthumb 15.0382 -12.4796
rfemur -20.8426 5.56566 24.9507
rtibia 42.6807
rfoot -26.4401 -19.7902
rtoes -2.71805
lfemur -24.4581 -4.53557 -21.263
ltibia 45.8849
lfoot -31.7628 4.13392
ltoes -26.9616
108
root 8.54744 14.8491 22.555 185.685 -1.19675 -178.507
lowerback 13.7073 1.27411 2.45442
upperback -2.95633 2.16058 0.217114
thorax -10.8585 0.874149 -1.64332
lowerneck -7.03086 -2.8459 -6.7554
upperneck 1.19883 -3.52362 7.00918
head 1.91361 -1.67264 3.36521
rclavicle 6.62201e-015 6.95746e-016
rhumerus -43.8125 9.73698 -91.3409
rradius 32.2822
rwrist 27.9878
rhand -18.1746 -57.5162
rfingers 7.12502
rthumb 8.10184 -87.3409
lclavicle 6.62201e-015 6.95746e-016
lhumerus -41.475 3.27284 83.3262
lradius 30.6388
lwrist -12.5605
lhand -11.0946 -41.8986
lfingers 7.12502
lthumb 14.9294 -12.4566
rfemur -21.2975 5.30034 25.048
rtibia 43.2041
rfoot -26.5505 -20.0013
rtoes -3.36117
lfemur -24.9334 -4.5788 -21.1652
ltibia 46.359
lfoot -31.8385 3.98434
ltoes -26.9333
109
root 8.55144 14.8245 22.5653 185.887 -1.52665 -178.536
lowerback 13.8259 1.15566 2.42276
upperback -3.01271 2.00319 0.238143
thorax -11.0002 0.798822 -1.57166
lowerneck -7.08038 -2.86072 -6.63258
upperneck 1.1694 -3.54305 6.83993
head 1.90564 -1.68415 3.28117
rclavicle 4.96962e-016 5.56597e-015
rhumerus -43.7632 9.56421 -91.2601
rradius 32.0784
rwrist 28.1002
rhand -19.087 -57.5978
rfingers 7.12502
rthumb 7.22117 -87.4546
lclavicle 4.96962e-016 5.56597e-015
lhumerus -41.5039 3.18038 83.389
lradius 30.6004
lwrist -12.1535
lhand -11.2023 -41.8317
lfingers 7.12502
lthumb 14.8256 -12.3821
rfemur -21.8279 5.00616 25.0648
rtibia 43.7503
rfoot -26.6576 -20.2113
rtoes -4.01135
lfemur -25.5062 -4.66656 -21.1406
ltibia 46.8457
lfoot -31.8587 3.84968
ltoes -26.9123
